name GIL11_slow2EmgEnv.mot
datacolumns 51
datarows 11
range 1.23425913 1.24351835
endheader
                time	   rect_fem_l_emgRec	   rect_fem_l_emgEnv	   rect_fem_l_emgAve	   rect_fem_l_emgSDp	   rect_fem_l_emgSDm	   rect_fem_r_emgRec	   rect_fem_r_emgEnv	   rect_fem_r_emgAve	   rect_fem_r_emgSDp	   rect_fem_r_emgSDm	   med_hams_l_emgRec	   med_hams_l_emgEnv	   med_hams_l_emgAve	   med_hams_l_emgSDp	   med_hams_l_emgSDm	   med_hams_r_emgRec	   med_hams_r_emgEnv	   med_hams_r_emgAve	   med_hams_r_emgSDp	   med_hams_r_emgSDm	   lat_hams_l_emgRec	   lat_hams_l_emgEnv	   lat_hams_l_emgAve	   lat_hams_l_emgSDp	   lat_hams_l_emgSDm	   lat_hams_r_emgRec	   lat_hams_r_emgEnv	   lat_hams_r_emgAve	   lat_hams_r_emgSDp	   lat_hams_r_emgSDm	    tib_ant_l_emgRec	    tib_ant_l_emgEnv	    tib_ant_l_emgAve	    tib_ant_l_emgSDp	    tib_ant_l_emgSDm	    tib_ant_r_emgRec	    tib_ant_r_emgEnv	    tib_ant_r_emgAve	    tib_ant_r_emgSDp	    tib_ant_r_emgSDm	    gas_sol_l_emgRec	    gas_sol_l_emgEnv	    gas_sol_l_emgAve	    gas_sol_l_emgSDp	    gas_sol_l_emgSDm	    gas_sol_r_emgRec	    gas_sol_r_emgEnv	    gas_sol_r_emgAve	    gas_sol_r_emgSDp	    gas_sol_r_emgSDm	
          1.23425913	          0.04084891	          0.03266438	          0.02603839	          0.06089993	         -0.00882315	          0.00368407	          0.05424520	          0.06012365	          0.07831619	          0.04193110	          0.01053226	          0.00584302	          0.04422987	          0.11228473	         -0.02382499	          0.00440664	          0.02722185	          0.14783730	          0.28977793	          0.00589666	          0.01820882	          0.04952538	          0.05749186	          0.11645046	         -0.00146675	          0.00415921	          0.04951721	          0.09714065	          0.15842946	          0.03585184	          0.01862018	          0.37818889	          0.30015472	          0.37993848	          0.22037095	          0.03618303	          0.09771064	          0.09654828	          0.12391349	          0.06918308	          0.01833109	          0.03073173	          0.03316947	          0.04499226	          0.02134669	          0.24151967	          0.77988927	          0.60022521	          0.82051167	          0.37993875	
          1.23518515	          0.02449628	          0.03278168	          0.02544277	          0.06022044	         -0.00933490	          0.00974111	          0.05352270	          0.05933825	          0.07728371	          0.04139278	          0.00914223	          0.00569567	          0.04494759	          0.11366731	         -0.02377214	          0.00098646	          0.02680014	          0.14771381	          0.28950672	          0.00592090	          0.02649794	          0.05074258	          0.05723513	          0.11576455	         -0.00129430	          0.01956337	          0.04928401	          0.09648840	          0.15802205	          0.03495475	          0.05815879	          0.38511018	          0.29988953	          0.38024107	          0.21953800	          0.07172388	          0.09854363	          0.09600589	          0.12322164	          0.06879015	          0.00476442	          0.03148343	          0.03320820	          0.04506886	          0.02134753	          0.31269198	          0.78060684	          0.60089761	          0.82141092	          0.38038430	
          1.23611093	          0.00625362	          0.03291621	          0.02486720	          0.05956098	         -0.00982657	          0.03670328	          0.05278207	          0.05855108	          0.07625127	          0.04085089	          0.00339563	          0.00553659	          0.04567555	          0.11506213	         -0.02371102	          0.01046699	          0.02638787	          0.14759129	          0.28923231	          0.00595027	          0.03839000	          0.05198367	          0.05698868	          0.11509130	         -0.00111394	          0.01152066	          0.04903260	          0.09583114	          0.15760909	          0.03405320	          0.03326120	          0.39195147	          0.29966670	          0.38059437	          0.21873904	          0.02597317	          0.09938246	          0.09545998	          0.12252358	          0.06839637	          0.01466144	          0.03224330	          0.03325367	          0.04515203	          0.02135531	          0.58446698	          0.78117849	          0.60156113	          0.82229631	          0.38082595	
          1.23703694	          0.00683223	          0.03306659	          0.02431170	          0.05892157	         -0.01029818	          0.06023406	          0.05202466	          0.05776203	          0.07521871	          0.04030536	          0.00070331	          0.00536608	          0.04641434	          0.11646990	         -0.02364123	          0.00068379	          0.02598674	          0.14746962	          0.28895463	          0.00598462	          0.03800454	          0.05324563	          0.05675244	          0.11443065	         -0.00092578	          0.01269454	          0.04876398	          0.09516886	          0.15719072	          0.03314700	          0.10300952	          0.39869614	          0.29948539	          0.38099723	          0.21797354	          0.03273611	          0.10022569	          0.09491051	          0.12181931	          0.06800171	          0.00107186	          0.03301035	          0.03330580	          0.04524168	          0.02136992	          0.35876434	          0.78160387	          0.60221595	          0.82316802	          0.38126387	
          1.23796284	          0.02617963	          0.03323147	          0.02377676	          0.05830280	         -0.01074928	          0.05094210	          0.05125183	          0.05697164	          0.07418671	          0.03975657	          0.00174017	          0.00518449	          0.04716384	          0.11789005	         -0.02356237	          0.02374387	          0.02559840	          0.14734890	          0.28867394	          0.00602385	          0.03091533	          0.05452551	          0.05652658	          0.11378321	         -0.00073006	          0.00878706	          0.04847920	          0.09450213	          0.15676743	          0.03223683	          0.20152178	          0.40532771	          0.29934508	          0.38144836	          0.21724179	          0.04597059	          0.10107188	          0.09435795	          0.12110940	          0.06760649	          0.01304354	          0.03378355	          0.03336441	          0.04533760	          0.02139122	          0.35895310	          0.78188326	          0.60286152	          0.82402535	          0.38169770	
          1.23888874	          0.03403362	          0.03340946	          0.02326263	          0.05770492	         -0.01117966	          0.00832697	          0.05046491	          0.05618013	          0.07315556	          0.03920469	          0.00423521	          0.00499222	          0.04792432	          0.11932269	         -0.02347405	          0.01823988	          0.02522448	          0.14722909	          0.28839028	          0.00606790	          0.05637320	          0.05582046	          0.05631110	          0.11314918	         -0.00052698	          0.00110870	          0.04817936	          0.09383118	          0.15633951	          0.03132285	          0.09511161	          0.41182992	          0.29924488	          0.38194627	          0.21654349	          0.04615781	          0.10191956	          0.09380248	          0.12039414	          0.06721082	          0.01130343	          0.03456185	          0.03342938	          0.04543965	          0.02141910	          0.59866572	          0.78201760	          0.60349756	          0.82486799	          0.38212714	
          1.23981476	          0.00119277	          0.03359918	          0.02276954	          0.05712822	         -0.01158914	          0.00300102	          0.04966523	          0.05538767	          0.07212547	          0.03864987	          0.00060571	          0.00478973	          0.04869608	          0.12076800	         -0.02337584	          0.00630860	          0.02486658	          0.14711024	          0.28810376	          0.00611672	          0.04749126	          0.05712772	          0.05610605	          0.11252881	         -0.00031672	          0.01491595	          0.04786561	          0.09315627	          0.15590728	          0.03040526	          0.01203961	          0.41818673	          0.29918429	          0.38248994	          0.21587864	          0.04480933	          0.10276729	          0.09324428	          0.11967375	          0.06681480	          0.00170440	          0.03534420	          0.03350056	          0.04554769	          0.02145343	          0.37766969	          0.78200848	          0.60412425	          0.82569605	          0.38255244	
          1.24074054	          0.02620113	          0.03379923	          0.02229795	          0.05657322	         -0.01197731	          0.01806596	          0.04885412	          0.05459484	          0.07109718	          0.03809251	          0.00792504	          0.00457752	          0.04947899	          0.12222536	         -0.02326739	          0.01939676	          0.02452625	          0.14699242	          0.28781468	          0.00617015	          0.00497732	          0.05844464	          0.05591155	          0.11192266	         -0.00009957	          0.02469969	          0.04753919	          0.09247801	          0.15547125	          0.02948476	          0.05161950	          0.42438239	          0.29916242	          0.38307763	          0.21524721	          0.02314827	          0.10361361	          0.09268381	          0.11894886	          0.06641877	          0.00241012	          0.03612950	          0.03357780	          0.04566152	          0.02149408	          0.24211819	          0.78185819	          0.60474086	          0.82650863	          0.38297309	
          1.24166656	          0.02556851	          0.03400824	          0.02184793	          0.05603996	         -0.01234411	          0.01062835	          0.04803288	          0.05380154	          0.07007053	          0.03753255	          0.01295323	          0.00435616	          0.05027362	          0.12369544	         -0.02314821	          0.00241266	          0.02420502	          0.14687555	          0.28752297	          0.00622812	          0.00659254	          0.05976867	          0.05572757	          0.11133072	          0.00012442	          0.02561864	          0.04720134	          0.09179633	          0.15503152	          0.02856115	          0.02680474	          0.43040145	          0.29917851	          0.38370828	          0.21464875	          0.00065509	          0.10445709	          0.09212107	          0.11821947	          0.06602267	          0.01256328	          0.03691664	          0.03366098	          0.04578103	          0.02154093	          0.24155067	          0.78156971	          0.60534751	          0.82730587	          0.38338916	
          1.24259245	          0.01913464	          0.03422480	          0.02141992	          0.05552901	         -0.01268917	          0.02139280	          0.04720282	          0.05300837	          0.06904630	          0.03697044	          0.00322891	          0.00412624	          0.05107983	          0.12517771	         -0.02301805	          0.00734945	          0.02390435	          0.14675973	          0.28722887	          0.00629060	          0.01915404	          0.06109739	          0.05555422	          0.11075350	          0.00035493	          0.02699919	          0.04685338	          0.09111188	          0.15458862	          0.02763514	          0.07962259	          0.43622884	          0.29923204	          0.38438053	          0.21408354	          0.01281402	          0.10529633	          0.09155654	          0.11748623	          0.06562686	          0.00359898	          0.03770446	          0.03374993	          0.04590603	          0.02159384	          0.14329522	          0.78114668	          0.60594392	          0.82808731	          0.38380052	
          1.24351835	          0.03099300	          0.03444754	          0.02101414	          0.05504057	         -0.01301229	          0.01619427	          0.04636522	          0.05221553	          0.06802473	          0.03640633	          0.00671955	          0.00388844	          0.05189789	          0.12667223	         -0.02287646	          0.01245816	          0.02362565	          0.14664495	          0.28693250	          0.00635740	          0.06838396	          0.06242846	          0.05539153	          0.11019125	          0.00059181	          0.02487402	          0.04649664	          0.09042495	          0.15414294	          0.02670697	          0.06291074	          0.44184985	          0.29932222	          0.38509313	          0.21355131	          0.01024968	          0.10612991	          0.09099039	          0.11674937	          0.06523140	          0.03668168	          0.03849183	          0.03384454	          0.04603638	          0.02165270	          0.08485028	          0.78059343	          0.60652977	          0.82885261	          0.38420694	
